<svg width="54" height="39" viewBox="0 0 54 39" fill="none" xmlns="http://www.w3.org/2000/svg">
<g clip-path="url(#clip0_4_99)">
<path fill-rule="evenodd" clip-rule="evenodd" d="M29.2325 36.3997C29.2325 36.3997 24.3325 38.9739 19.7767 38.9735H19.7725C18.2156 38.9735 16.8104 38.4799 15.9255 37.5006C15.651 37.1978 15.4256 36.8483 15.2535 36.4484C13.5451 37.7994 11.349 38.6396 8.82938 38.6396C6.4613 38.6396 -0.00378418 36.8499 -0.00378418 29.1666C-0.00378418 24.0633 2.70844 19.2841 6.3466 15.778C9.99295 12.2622 14.5611 10.0498 18.1706 9.98798C21.8907 9.92455 23.9924 11.9143 25.0167 13.3328C26.3318 11.9692 28.5197 11.5996 30.0683 12.7791C33.7925 5.07124 40.1101 0.140207 45.6452 0.00310822C48.3205 -0.062781 50.7829 0.889943 52.3192 2.76594C53.3517 4.0248 53.9786 5.70517 53.954 7.80667C53.954 12.6833 50.9386 17.7768 47.5381 22.6432C48.1034 22.8879 48.5213 23.2628 48.8942 23.6786C49.521 24.3735 49.8283 25.4871 49.8979 26.8057L49.902 26.8294V26.8527C49.902 28.9632 48.7958 31.377 47.0095 33.4945C44.3874 36.5994 40.2986 39.0112 36.5047 38.9678C31.5965 38.9113 29.2325 36.3997 29.2325 36.3997ZM45.6534 22.2254C48.9515 17.564 52.1594 12.4979 52.1594 7.79562V7.7903C52.2086 3.733 49.1523 1.7109 45.6903 1.79643C41.6015 1.89752 37.1357 4.97671 33.7966 9.8918C33.7966 9.8918 32.5594 11.839 32.0472 12.838C31.8301 13.255 31.4286 13.8828 31.4613 13.9442C32.3381 15.645 32.5921 17.6508 32.3053 19.7862C31.9816 22.2372 30.9369 24.8679 29.3637 27.3684C28.5402 30.0085 28.5852 32.5716 29.9536 34.2786C31.6784 36.4308 34.0302 37.2604 36.5376 37.2587C39.8479 37.2571 43.3509 35.0476 45.6329 32.3387C47.112 30.588 48.0952 28.6236 48.1034 26.8707C48.0583 26.0653 47.792 24.1693 46.3581 24.0232C44.7111 23.8554 43.6459 24.9767 42.6011 26.0932C40.4912 28.344 38.1067 28.1378 36.9227 26.4296C35.9804 25.0696 36.1729 22.9874 36.8776 20.9325C38.2951 16.7795 40.6264 12.9317 44.0842 9.46373C44.4325 9.113 45.002 9.11178 45.3543 9.46087C45.7026 9.81037 45.7067 10.3788 45.3543 10.7295C42.1054 13.9909 39.9094 17.6066 38.5778 21.512C38.3033 22.3072 38.1026 23.1065 38.0616 23.8394C38.0329 24.4345 38.1026 24.9808 38.3976 25.4077C39.0122 26.2908 40.2003 26.031 41.286 24.8679C42.5233 23.5481 43.863 22.3686 45.6534 22.2254ZM16.7366 34.9899C16.8718 36.5552 18.2484 37.1777 19.7684 37.1793C22.7429 37.1331 25.5698 36.3674 28.2493 34.8941C27.5937 33.6258 27.1677 32.0809 27.1349 30.3911C26.8071 30.7058 26.2868 30.7292 25.9344 30.4308C25.5534 30.112 25.5043 29.5456 25.8238 29.167C26.5203 28.342 27.1553 27.4838 27.7207 26.6076C27.7699 26.4648 27.8478 26.342 27.9502 26.2446C29.3227 24.031 30.2363 21.7167 30.5272 19.5493C30.7279 18.0363 30.5354 16.2724 30.1257 15.3385C29.8553 14.7181 29.2161 14.2998 28.9089 14.1615C27.7412 13.6348 26.2868 14.0813 25.8279 15.3536V15.3545C25.7009 15.7048 25.369 15.9405 24.9962 15.9462C24.6234 15.952 24.2874 15.7269 24.1481 15.3807V15.3798C24.1481 15.3798 22.6528 11.7052 18.2034 11.7817C14.9504 11.8374 10.8738 13.9037 7.59211 17.0688C4.2981 20.2434 1.79482 24.5458 1.79482 29.1666C1.79482 35.3451 6.92426 36.8454 8.82938 36.8454C11.4392 36.8454 13.627 35.7625 15.1347 34.1182C17.1177 31.6954 18.863 28.82 19.8176 25.9029C19.9733 25.4322 20.4813 25.1752 20.9525 25.3291C21.4236 25.4826 21.6817 25.9896 21.5261 26.4599C20.5387 29.4756 18.7687 32.4541 16.7366 34.9899ZM10.8533 28.8049C10.6812 29.2702 10.1691 29.51 9.70207 29.3406C9.23501 29.1711 8.9974 28.6559 9.16538 28.191C10.9435 23.3103 13.4385 19.9426 16.7571 17.5595C17.1586 17.2706 17.7199 17.3622 18.0108 17.7641C18.2976 18.166 18.2074 18.7267 17.8059 19.016C14.7577 21.2063 12.488 24.3191 10.8533 28.8049Z" fill="white"/>
</g>
<defs>
<clipPath id="clip0_4_99">
<rect width="54" height="39" fill="white"/>
</clipPath>
</defs>
</svg>
